<svg width="51" height="43" viewBox="0 0 51 43" fill="none" xmlns="http://www.w3.org/2000/svg">
<path opacity="0.1" d="M22.0227 8.26848C18.711 8.37873 16.2825 9.48119 14.737 11.5759C13.1916 13.6706 12.4188 17.0882 12.4188 21.8288H22.1883V42.5H0V25.963C0 17.0331 1.71104 10.4734 5.13312 6.28405C8.5552 2.09468 14.1851 0 22.0227 0V8.26848ZM50.8344 8.26848C47.5227 8.37873 45.0942 9.48119 43.5487 11.5759C42.0033 13.6706 41.2305 17.0882 41.2305 21.8288H51V42.5H28.8117V25.963C28.8117 17.0331 30.5227 10.4734 33.9448 6.28405C37.3669 2.09468 42.9968 0 50.8344 0V8.26848Z" fill="white"/>
</svg>
